<svg width="78" height="63" viewBox="0 0 78 63" fill="none" xmlns="http://www.w3.org/2000/svg">
<path d="M3.66797 20.3C3.66797 14.4194 3.66797 11.4792 4.8124 9.2331C5.81907 7.2574 7.42537 5.6511 9.40107 4.64443C11.6471 3.5 14.5874 3.5 20.468 3.5H56.868C62.7485 3.5 65.6888 3.5 67.9349 4.64443C69.9106 5.6511 71.5169 7.2574 72.5235 9.2331C73.668 11.4792 73.668 14.4194 73.668 20.3V42.7C73.668 48.5806 73.668 51.5208 72.5235 53.7669C71.5169 55.7426 69.9106 57.3489 67.9349 58.3556C65.6888 59.5 62.7485 59.5 56.868 59.5H20.468C14.5874 59.5 11.6471 59.5 9.40107 58.3556C7.42537 57.3489 5.81907 55.7426 4.8124 53.7669C3.66797 51.5208 3.66797 48.5806 3.66797 42.7V20.3Z" fill="#0159B5"/>
<path d="M3.66797 14L32.2452 34.004C34.5593 35.6239 35.7163 36.4339 36.9749 36.7476C38.0866 37.0247 39.2493 37.0247 40.361 36.7476C41.6196 36.4339 42.7767 35.6239 45.0907 34.0041L73.668 14M20.468 59.5H56.868C62.7485 59.5 65.6888 59.5 67.9349 58.3556C69.9106 57.3489 71.5169 55.7426 72.5235 53.7669C73.668 51.5208 73.668 48.5806 73.668 42.7V20.3C73.668 14.4194 73.668 11.4792 72.5235 9.2331C71.5169 7.2574 69.9106 5.6511 67.9349 4.64443C65.6888 3.5 62.7485 3.5 56.868 3.5H20.468C14.5874 3.5 11.6471 3.5 9.40107 4.64443C7.42537 5.6511 5.81907 7.2574 4.8124 9.2331C3.66797 11.4792 3.66797 14.4194 3.66797 20.3V42.7C3.66797 48.5806 3.66797 51.5208 4.8124 53.7669C5.81907 55.7426 7.42537 57.3489 9.40107 58.3556C11.6471 59.5 14.5874 59.5 20.468 59.5Z" stroke="#F4F2F1" stroke-width="7" stroke-linecap="round" stroke-linejoin="round"/>
</svg>
